<?xml version="1.0" encoding="UTF-8"?>
<svg id="Capa_1" data-name="Capa 1" xmlns="http://www.w3.org/2000/svg" viewBox="0 0 186.1 22.3">
  <g>
    <path d="M42.1.3h19.3v3.9h-13.7v4.3h13v3.8h-13v4.8h13.8v3.9h-19.4V.3Z"/>
    <path d="M64.4,0h5.1v21h-5.1V0Z"/>
    <path d="M92.1,16.4c-.7,1.8-1.9,3.2-3.6,4s-3.7,1.2-6,1.2c-1.5,0-2.9-.2-4.2-.5-1.3-.3-2.3-.8-3.2-1.5-.9-.7-1.6-1.5-2.1-2.6s-.7-2.3-.7-3.8.2-2.7.7-3.8,1.2-1.9,2.1-2.6c.9-.7,2-1.2,3.2-1.5,1.3-.3,2.7-.5,4.2-.5,3.4,0,5.9.8,7.5,2.4,1.6,1.6,2.5,3.9,2.5,6.8v.5h-15v.2c0,.4.1.8.3,1.2.2.4.5.8.9,1.2.4.4.9.7,1.6.9.6.3,1.4.4,2.2.4,2.1,0,3.5-.7,4.2-2h5.4ZM87.1,11.6h0c0-.3-.1-.6-.2-1-.2-.4-.4-.8-.8-1.1-.4-.4-.9-.7-1.5-1s-1.4-.4-2.3-.4c-1,0-1.9.2-2.5.5s-1.1.7-1.5,1.1c-.4.4-.6.8-.7,1.2s-.2.6-.2.7v.1h9.7v-.1Z"/>
    <path d="M108.7,11.2c-.3-1-.8-1.7-1.6-2.1-.7-.4-1.6-.6-2.7-.6-1.6,0-2.8.4-3.7,1.2-.9.8-1.3,2-1.3,3.5s.4,2.7,1.3,3.5c.9.8,2.1,1.2,3.7,1.2,1.2,0,2.1-.3,2.9-.8s1.2-1.3,1.3-2.3h5.3c-.2,1.4-.6,2.5-1.2,3.4s-1.3,1.6-2.2,2.1c-.9.5-1.9.8-3,1s-2.3.3-3.6.3c-1.5,0-2.8-.2-4-.5s-2.2-.8-3.1-1.5-1.5-1.5-2-2.6-.7-2.3-.7-3.8.2-2.7.7-3.8,1.2-1.9,2.1-2.6c.9-.7,2-1.2,3.2-1.5,1.3-.3,2.7-.5,4.2-.5,1,0,2,.1,3,.3,1,.2,2,.5,2.9,1s1.6,1.1,2.3,1.9c.7.8,1.1,1.9,1.3,3.1h-5.1v.1Z"/>
    <path d="M121.2,16.2c.1.7.4,1.2,1,1.6s1.5.6,2.8.6c1.2,0,2.1-.1,2.7-.4.6-.3,1-.7,1-1.3,0-.2,0-.4-.1-.6s-.2-.3-.4-.4-.5-.2-.9-.3-.9-.2-1.5-.3l-4.6-.6c-.8-.1-1.5-.3-2.2-.5-.6-.2-1.2-.5-1.6-.8s-.8-.8-1-1.3-.3-1.1-.3-1.9c0-1,.2-1.9.7-2.6.5-.7,1.1-1.2,1.9-1.6.8-.4,1.7-.7,2.7-.8,1-.1,2.1-.2,3.1-.2,1.8,0,3.3.1,4.4.4,1.1.3,2.1.7,2.7,1.1.7.5,1.2,1,1.4,1.7.3.6.5,1.3.6,2h-5.6c-.1-.4-.2-.7-.5-1-.2-.3-.5-.5-.8-.6-.3-.2-.7-.3-1-.3-.4-.1-.7-.1-1.1-.1h-1.1c-.4,0-.8.1-1.1.2-.3.1-.6.3-.8.5-.2.2-.3.5-.3.9,0,.2,0,.3.1.5s.2.3.4.4c.2.1.5.2.8.3s.8.2,1.3.2l3.5.4c1.3.1,2.4.3,3.3.6.9.3,1.6.6,2.1,1s.9.9,1.1,1.4c.2.5.3,1.1.3,1.8,0,1.2-.3,2.1-.9,2.8-.6.7-1.3,1.2-2.3,1.6-.9.4-2,.6-3.1.7s-2.3.2-3.4.2c-3,0-5.2-.4-6.7-1.3s-2.3-2.2-2.4-4.1h5.8v.1Z"/>
    <path d="M136.9,0h5.1v3.6h-5.1V0ZM136.9,5.5h5.1v15.5h-5.1V5.5Z"/>
    <path d="M144.7,13.3c0-1.5.2-2.7.7-3.8s1.2-1.9,2.1-2.6c.9-.7,2-1.2,3.2-1.5,1.3-.3,2.7-.5,4.2-.5s2.9.2,4.2.5,2.3.8,3.2,1.5,1.6,1.5,2.1,2.6.7,2.3.7,3.8-.2,2.7-.7,3.8-1.2,1.9-2.1,2.6c-.9.7-2,1.2-3.2,1.5-1.3.3-2.7.5-4.2.5s-2.9-.2-4.2-.5-2.3-.8-3.2-1.5-1.6-1.5-2.1-2.6c-.4-1.1-.7-2.4-.7-3.8ZM150,13.3c0,1.5.4,2.7,1.3,3.5.9.8,2.1,1.2,3.7,1.2s2.8-.4,3.7-1.2c.9-.8,1.3-2,1.3-3.5s-.4-2.7-1.3-3.5c-.9-.8-2.1-1.2-3.7-1.2s-2.8.4-3.7,1.2c-.9.8-1.3,1.9-1.3,3.5Z"/>
    <path d="M180.9,12.2c0-2.1-1.1-3.2-3.4-3.2-.6,0-1.2.1-1.7.2-.5.2-1,.4-1.4.8-.4.4-.7.8-.9,1.4-.2.6-.3,1.3-.3,2.1v7.5h-5.2V5.5h4.9v2.3h.1c.2-.3.6-.7,1-1s.9-.6,1.4-.9c.6-.3,1.2-.5,1.8-.6.7-.2,1.4-.2,2.1-.2s1.4.1,2.2.2c.8.2,1.5.4,2.2.9.7.4,1.2,1,1.7,1.7.4.7.7,1.7.7,2.8v10.3h-5.1v-8.8h-.1Z"/>
  </g>
  <path d="M13.5,9.6v-2.7H5.3v-2.7h19.8v2.7h-8.2v2.8h13C29.7,4.3,25.9.1,21.1.1h-12.5C4,0,.2,4.3,0,9.6h13.5Z"/>
  <path d="M24.7,12.3h-7.7v3.2h8.2v2.7H5.4v-2.7h8.2v-3.2H.1c0,5.5,3.9,10,8.8,10h12.5c4.9,0,8.8-4.5,8.8-10h0s-5.5,0-5.5,0Z"/>
</svg>