<?xml version="1.0" encoding="utf-8"?>
<!-- Generator: Adobe Illustrator 23.0.6, SVG Export Plug-In . SVG Version: 6.00 Build 0)  -->
<svg version="1.1" id="Capa_1" xmlns="http://www.w3.org/2000/svg" xmlns:xlink="http://www.w3.org/1999/xlink" x="0px" y="0px"
	 viewBox="0 0 191 27" style="enable-background:new 0 0 191 27;" xml:space="preserve">
<style type="text/css">
	.st0{fill:#384A93;}
</style>
<g>
	<path class="st0" d="M45.1,2.6h19.3v3.9H50.7v4.3h13v3.8h-13v4.8h13.8v3.9H45.1V2.6z"/>
	<path class="st0" d="M67.4,2.3h5.1v21h-5.1V2.3z"/>
	<path class="st0" d="M95.1,18.7c-0.7,1.8-1.9,3.2-3.6,4c-1.7,0.8-3.7,1.2-6,1.2c-1.5,0-2.9-0.2-4.2-0.5c-1.3-0.3-2.3-0.8-3.2-1.5
		c-0.9-0.7-1.6-1.5-2.1-2.6c-0.5-1.1-0.7-2.3-0.7-3.8s0.2-2.7,0.7-3.8c0.5-1.1,1.2-1.9,2.1-2.6c0.9-0.7,2-1.2,3.2-1.5
		c1.3-0.3,2.7-0.5,4.2-0.5c3.4,0,5.9,0.8,7.5,2.4c1.6,1.6,2.5,3.9,2.5,6.8v0.5h-15V17c0,0.4,0.1,0.8,0.3,1.2
		c0.2,0.4,0.5,0.8,0.9,1.2c0.4,0.4,0.9,0.7,1.6,0.9c0.6,0.3,1.4,0.4,2.2,0.4c2.1,0,3.5-0.7,4.2-2H95.1z M90.1,13.9L90.1,13.9
		c0-0.3-0.1-0.6-0.2-1c-0.2-0.4-0.4-0.8-0.8-1.1c-0.4-0.4-0.9-0.7-1.5-1c-0.6-0.3-1.4-0.4-2.3-0.4c-1,0-1.9,0.2-2.5,0.5
		c-0.6,0.3-1.1,0.7-1.5,1.1c-0.4,0.4-0.6,0.8-0.7,1.2c-0.1,0.4-0.2,0.6-0.2,0.7v0.1H90.1z"/>
	<path class="st0" d="M111.7,13.5c-0.3-1-0.8-1.7-1.6-2.1c-0.7-0.4-1.6-0.6-2.7-0.6c-1.6,0-2.8,0.4-3.7,1.2c-0.9,0.8-1.3,2-1.3,3.5
		c0,1.5,0.4,2.7,1.3,3.5c0.9,0.8,2.1,1.2,3.7,1.2c1.2,0,2.1-0.3,2.9-0.8s1.2-1.3,1.3-2.3h5.3c-0.2,1.4-0.6,2.5-1.2,3.4
		c-0.6,0.9-1.3,1.6-2.2,2.1c-0.9,0.5-1.9,0.8-3,1c-1.1,0.2-2.3,0.3-3.6,0.3c-1.5,0-2.8-0.2-4-0.5c-1.2-0.3-2.2-0.8-3.1-1.5
		c-0.9-0.7-1.5-1.5-2-2.6c-0.5-1.1-0.7-2.3-0.7-3.8s0.2-2.7,0.7-3.8c0.5-1.1,1.2-1.9,2.1-2.6c0.9-0.7,2-1.2,3.2-1.5
		c1.3-0.3,2.7-0.5,4.2-0.5c1,0,2,0.1,3,0.3c1,0.2,2,0.5,2.9,1c0.9,0.5,1.6,1.1,2.3,1.9c0.7,0.8,1.1,1.9,1.3,3.1H111.7z"/>
	<path class="st0" d="M124.2,18.5c0.1,0.7,0.4,1.2,1,1.6c0.6,0.4,1.5,0.6,2.8,0.6c1.2,0,2.1-0.1,2.7-0.4c0.6-0.3,1-0.7,1-1.3
		c0-0.2,0-0.4-0.1-0.6c-0.1-0.2-0.2-0.3-0.4-0.4c-0.2-0.1-0.5-0.2-0.9-0.3s-0.9-0.2-1.5-0.3l-4.6-0.6c-0.8-0.1-1.5-0.3-2.2-0.5
		c-0.6-0.2-1.2-0.5-1.6-0.8c-0.4-0.3-0.8-0.8-1-1.3c-0.2-0.5-0.3-1.1-0.3-1.9c0-1,0.2-1.9,0.7-2.6c0.5-0.7,1.1-1.2,1.9-1.6
		c0.8-0.4,1.7-0.7,2.7-0.8c1-0.1,2.1-0.2,3.1-0.2c1.8,0,3.3,0.1,4.4,0.4c1.1,0.3,2.1,0.7,2.7,1.1c0.7,0.5,1.2,1,1.4,1.7
		c0.3,0.6,0.5,1.3,0.6,2h-5.6c-0.1-0.4-0.2-0.7-0.5-1c-0.2-0.3-0.5-0.5-0.8-0.6c-0.3-0.2-0.7-0.3-1-0.3c-0.4-0.1-0.7-0.1-1.1-0.1
		c-0.3,0-0.7,0-1.1,0c-0.4,0-0.8,0.1-1.1,0.2c-0.3,0.1-0.6,0.3-0.8,0.5c-0.2,0.2-0.3,0.5-0.3,0.9c0,0.2,0,0.3,0.1,0.5
		c0.1,0.2,0.2,0.3,0.4,0.4c0.2,0.1,0.5,0.2,0.8,0.3c0.3,0.1,0.8,0.2,1.3,0.2l3.5,0.4c1.3,0.1,2.4,0.3,3.3,0.6c0.9,0.3,1.6,0.6,2.1,1
		c0.5,0.4,0.9,0.9,1.1,1.4c0.2,0.5,0.3,1.1,0.3,1.8c0,1.2-0.3,2.1-0.9,2.8c-0.6,0.7-1.3,1.2-2.3,1.6c-0.9,0.4-2,0.6-3.1,0.7
		c-1.1,0.1-2.3,0.2-3.4,0.2c-3,0-5.2-0.4-6.7-1.3c-1.5-0.9-2.3-2.2-2.4-4.1H124.2z"/>
	<path class="st0" d="M139.9,2.3h5.1v3.6h-5.1V2.3z M139.9,7.8h5.1v15.5h-5.1V7.8z"/>
	<path class="st0" d="M147.7,15.6c0-1.5,0.2-2.7,0.7-3.8c0.5-1.1,1.2-1.9,2.1-2.6c0.9-0.7,2-1.2,3.2-1.5c1.3-0.3,2.7-0.5,4.2-0.5
		c1.5,0,2.9,0.2,4.2,0.5c1.3,0.3,2.3,0.8,3.2,1.5c0.9,0.7,1.6,1.5,2.1,2.6c0.5,1.1,0.7,2.3,0.7,3.8s-0.2,2.7-0.7,3.8
		c-0.5,1.1-1.2,1.9-2.1,2.6c-0.9,0.7-2,1.2-3.2,1.5c-1.3,0.3-2.7,0.5-4.2,0.5c-1.5,0-2.9-0.2-4.2-0.5c-1.3-0.3-2.3-0.8-3.2-1.5
		s-1.6-1.5-2.1-2.6C148,18.3,147.7,17,147.7,15.6z M153,15.6c0,1.5,0.4,2.7,1.3,3.5c0.9,0.8,2.1,1.2,3.7,1.2c1.6,0,2.8-0.4,3.7-1.2
		c0.9-0.8,1.3-2,1.3-3.5c0-1.5-0.4-2.7-1.3-3.5c-0.9-0.8-2.1-1.2-3.7-1.2c-1.6,0-2.8,0.4-3.7,1.2C153.4,12.9,153,14,153,15.6z"/>
	<path class="st0" d="M183.9,14.5c0-2.1-1.1-3.2-3.4-3.2c-0.6,0-1.2,0.1-1.7,0.2c-0.5,0.2-1,0.4-1.4,0.8c-0.4,0.4-0.7,0.8-0.9,1.4
		c-0.2,0.6-0.3,1.3-0.3,2.1v7.5H171V7.8h4.9v2.3h0.1c0.2-0.3,0.6-0.7,1-1c0.4-0.3,0.9-0.6,1.4-0.9c0.6-0.3,1.2-0.5,1.8-0.6
		c0.7-0.2,1.4-0.2,2.1-0.2c0.7,0,1.4,0.1,2.2,0.2c0.8,0.2,1.5,0.4,2.2,0.9c0.7,0.4,1.2,1,1.7,1.7c0.4,0.7,0.7,1.7,0.7,2.8v10.3h-5.1
		V14.5z"/>
</g>
<path class="st0" d="M16.5,11.9V9.2l-8.2,0V6.5h8.3h3.2l8.3,0l0,2.7l-8.2,0v2.8l13,0c-0.2-5.4-4-9.6-8.8-9.6l-12.5,0
	C7,2.3,3.2,6.6,3,11.9L16.5,11.9z"/>
<path class="st0" d="M27.7,14.6L27.7,14.6l-7.7,0v3.2l8.2,0v2.7l-8.3,0h-3.2l-8.3,0v-2.7h8.2v-3.2l-7.7,0v0l-5.8,0v0
	c0,5.5,3.9,10,8.8,10l12.5,0c4.9,0,8.8-4.5,8.8-10v0H27.7z"/>
</svg>
